<svg xmlns="http://www.w3.org/2000/svg" viewBox="0 0 512 512">
  <defs>
    <!-- Gradient for the book cover -->
    <linearGradient id="bookGradient" x1="0%" y1="0%" x2="100%" y2="100%">
      <stop offset="0%" style="stop-color:#008B4F;stop-opacity:1" />
      <stop offset="100%" style="stop-color:#006B3F;stop-opacity:1" />
    </linearGradient>
    <!-- Gold gradient -->
    <linearGradient id="goldGradient" x1="0%" y1="0%" x2="100%" y2="100%">
      <stop offset="0%" style="stop-color:#FFE066;stop-opacity:1" />
      <stop offset="100%" style="stop-color:#FCD116;stop-opacity:1" />
    </linearGradient>
    <!-- Shadow filter -->
    <filter id="shadow" x="-20%" y="-20%" width="140%" height="140%">
      <feDropShadow dx="0" dy="4" stdDeviation="8" flood-color="#000" flood-opacity="0.25"/>
    </filter>
    <!-- Inner glow -->
    <filter id="glow">
      <feGaussianBlur stdDeviation="2" result="coloredBlur"/>
      <feMerge>
        <feMergeNode in="coloredBlur"/>
        <feMergeNode in="SourceGraphic"/>
      </feMerge>
    </filter>
  </defs>

  <!-- Background circle with Ghana green -->
  <circle cx="256" cy="256" r="240" fill="url(#bookGradient)" filter="url(#shadow)"/>

  <!-- Decorative ring -->
  <circle cx="256" cy="256" r="220" fill="none" stroke="#FCD116" stroke-width="4" opacity="0.3"/>

  <!-- Open book - left page -->
  <path d="M256 140 L256 380 Q200 360 120 370 L120 150 Q200 140 256 160 Z"
        fill="#FFFFFF"
        stroke="#E8E8E8"
        stroke-width="2"/>

  <!-- Open book - right page -->
  <path d="M256 140 L256 380 Q312 360 392 370 L392 150 Q312 140 256 160 Z"
        fill="#F8F8F8"
        stroke="#E8E8E8"
        stroke-width="2"/>

  <!-- Book spine shadow -->
  <path d="M256 140 L256 380" stroke="#DDDDDD" stroke-width="8" stroke-linecap="round"/>
  <path d="M256 140 L256 380" stroke="#CCCCCC" stroke-width="4" stroke-linecap="round"/>

  <!-- Text lines on left page -->
  <line x1="145" y1="185" x2="235" y2="180" stroke="#E0E0E0" stroke-width="6" stroke-linecap="round"/>
  <line x1="150" y1="210" x2="240" y2="205" stroke="#E8E8E8" stroke-width="5" stroke-linecap="round"/>
  <line x1="155" y1="235" x2="242" y2="230" stroke="#E0E0E0" stroke-width="5" stroke-linecap="round"/>
  <line x1="158" y1="260" x2="244" y2="255" stroke="#E8E8E8" stroke-width="4" stroke-linecap="round"/>

  <!-- Text lines on right page -->
  <line x1="277" y1="180" x2="367" y2="185" stroke="#E0E0E0" stroke-width="6" stroke-linecap="round"/>
  <line x1="272" y1="205" x2="362" y2="210" stroke="#E8E8E8" stroke-width="5" stroke-linecap="round"/>
  <line x1="270" y1="230" x2="357" y2="235" stroke="#E0E0E0" stroke-width="5" stroke-linecap="round"/>
  <line x1="268" y1="255" x2="354" y2="260" stroke="#E8E8E8" stroke-width="4" stroke-linecap="round"/>

  <!-- Ghana Black Star - centered on the book -->
  <g transform="translate(256, 300)" filter="url(#glow)">
    <polygon
      points="0,-45 10.5,-13.9 44.5,-13.9 17,-5.1 27.5,26.9 0,10 -27.5,26.9 -17,-5.1 -44.5,-13.9 -10.5,-13.9"
      fill="#000000"
      stroke="url(#goldGradient)"
      stroke-width="3"/>
  </g>

  <!-- Small decorative stars -->
  <g fill="#FCD116" opacity="0.8">
    <polygon points="140,120 143,128 152,128 145,133 148,141 140,136 132,141 135,133 128,128 137,128" transform="scale(0.6) translate(80, 60)"/>
    <polygon points="372,120 375,128 384,128 377,133 380,141 372,136 364,141 367,133 360,128 369,128" transform="scale(0.6) translate(320, 60)"/>
  </g>

  <!-- Red accent line at bottom -->
  <path d="M100 420 Q256 400 412 420" stroke="#CE1126" stroke-width="6" fill="none" stroke-linecap="round"/>

  <!-- AI sparkle accent -->
  <g fill="#FCD116" opacity="0.9">
    <circle cx="380" cy="150" r="4"/>
    <line x1="380" y1="140" x2="380" y2="160" stroke="#FCD116" stroke-width="2"/>
    <line x1="370" y1="150" x2="390" y2="150" stroke="#FCD116" stroke-width="2"/>
  </g>
</svg>
